# xmcd
#
# Track frame offsets:
#	150
#	23903
#	37775
#	58764
#	77556
#	96946
#	113783
#	134241
#	146816
#	172712
#	188902
#
# Disc length: 2753 seconds
#
# Revision: 0
# Processed by: cddbd v1.5.2PL0 Copyright (c) Steve Scherf et al.
# Submitted via: AudioConverter v7.0 Copyright (c) D.R. Software
#
DISCID=920abf0b
DTITLE=Various Artist - MISSISSIPPI
DYEAR=2009
DGENRE=Blues
TTITLE0=DOWN HOME BLUES
TTITLE1=GROOVE ME
TTITLE2=FRIDAY NIGHT FISH FRY
TTITLE3=MEMBERS ONLY
TTITLE4=THE BLUES IS ALRIGHT
TTITLE5=MISTY BLUE
TTITLE6=CANT SAVE A CENT
TTITLE7=TRAPPED BY A THING CALLED LOVE
TTITLE8=IM COMING HOME
TTITLE9=STILL CALLED THE BLUES
TTITLE10=YOU STILL GOT IT
EXTD=
EXTT0=DOWN HOME BLUES
EXTT1=GROOVE ME
EXTT2=FRIDAY NIGHT FISH FRY
EXTT3=MEMBERS ONLY
EXTT4=THE BLUES IS ALRIGHT
EXTT5=MISTY BLUE
EXTT6=CANT SAVE A CENT
EXTT7=TRAPPED BY A THING CALLED LOVE
EXTT8=IM COMING HOME
EXTT9=STILL CALLED THE BLUES
EXTT10=YOU STILL GOT IT
PLAYORDER=
